<!DOCTYPE svg PUBLIC "-//W3C//DTD SVG 1.1//EN" "http://www.w3.org/Graphics/SVG/1.1/DTD/svg11.dtd">
<!-- Uploaded to: SVG Repo, www.svgrepo.com, Transformed by: SVG Repo Mixer Tools -->
<svg width="203px" height="203px" viewBox="-2.4 -2.4 28.80 28.80" fill="none" xmlns="http://www.w3.org/2000/svg" transform="rotate(0)matrix(1, 0, 0, 1, 0, 0)">
<g id="SVGRepo_bgCarrier" stroke-width="0"/>
<g id="SVGRepo_tracerCarrier" stroke-linecap="round" stroke-linejoin="round" stroke="#CCCCCC" stroke-width="3.2640000000000002"> <path d="M12 12C14.7614 12 17 9.76142 17 7C17 4.23858 14.7614 2 12 2C9.23858 2 7 4.23858 7 7C7 9.76142 9.23858 12 12 12Z" stroke="#03479b" stroke-width="1.056" stroke-linecap="round" stroke-linejoin="round"/> <path opacity="0.4" d="M3.41016 22C3.41016 18.13 7.26018 15 12.0002 15" stroke="#03479b" stroke-width="1.056" stroke-linecap="round" stroke-linejoin="round"/> <path d="M18.2 21.4C19.9673 21.4 21.4 19.9673 21.4 18.2C21.4 16.4327 19.9673 15 18.2 15C16.4327 15 15 16.4327 15 18.2C15 19.9673 16.4327 21.4 18.2 21.4Z" stroke="#03479b" stroke-width="1.056" stroke-linecap="round" stroke-linejoin="round"/> <path d="M22 22L21 21" stroke="#03479b" stroke-width="1.056" stroke-linecap="round" stroke-linejoin="round"/> </g>
<g id="SVGRepo_iconCarrier"> <path d="M12 12C14.7614 12 17 9.76142 17 7C17 4.23858 14.7614 2 12 2C9.23858 2 7 4.23858 7 7C7 9.76142 9.23858 12 12 12Z" stroke="#03479b" stroke-width="1.056" stroke-linecap="round" stroke-linejoin="round"/> <path opacity="0.4" d="M3.41016 22C3.41016 18.13 7.26018 15 12.0002 15" stroke="#03479b" stroke-width="1.056" stroke-linecap="round" stroke-linejoin="round"/> <path d="M18.2 21.4C19.9673 21.4 21.4 19.9673 21.4 18.2C21.4 16.4327 19.9673 15 18.2 15C16.4327 15 15 16.4327 15 18.2C15 19.9673 16.4327 21.4 18.2 21.4Z" stroke="#03479b" stroke-width="1.056" stroke-linecap="round" stroke-linejoin="round"/> <path d="M22 22L21 21" stroke="#03479b" stroke-width="1.056" stroke-linecap="round" stroke-linejoin="round"/> </g>
</svg>